<svg width="211" height="74" viewBox="0 0 211 74" fill="none" xmlns="http://www.w3.org/2000/svg">
<g clip-path="url(#clip0_2008_11980)">
<path d="M0.311035 21.4433C1.86592 7.62406 9.79583 -3.65366 19.7471 1.5881C28.1434 6.82986 14.305 25.8908 0.311035 21.4433Z" fill="#100E10"/>
<path d="M0 27.9561C15.5488 22.7143 27.3659 14.7722 28.6099 0C35.9178 13.5015 37.6282 39.0749 28.7653 42.8871C19.9025 46.6993 15.5488 47.3347 9.3293 48.2877C16.9482 46.3816 23.1678 41.1399 28.2989 33.1978C29.2318 31.6094 28.9208 30.3387 27.2105 29.3856C20.2135 44.9521 1.08842 47.4935 0 27.9561Z" fill="#100E10"/>
</g>
<g clip-path="url(#clip1_2008_11980)">
<path d="M48.4072 15.725V2.38232C48.4072 1.74695 48.5627 1.27043 49.0292 0.952748C49.4956 0.635065 49.9621 0.317383 50.4286 0.317383H52.139C52.6054 0.317383 52.7609 0.476224 52.7609 0.952748V6.19451C52.7609 6.51219 52.9164 6.67103 53.0719 6.67103C53.2274 6.82987 53.3829 6.82987 53.5383 6.82987C54.4713 6.82987 55.4042 6.67103 56.0262 6.67103C56.6481 6.51219 57.2701 6.35335 57.892 6.03567C58.0475 6.03567 58.0475 5.87683 58.203 5.71798C58.3585 5.87683 58.3585 5.71798 58.3585 5.55914V2.38232C58.3585 2.06464 58.3585 1.74695 58.514 1.58811C58.6695 1.27043 58.825 1.11159 58.9804 0.952748C59.1359 0.793907 59.4469 0.635065 59.6024 0.476224C59.9134 0.317383 60.0689 0.317383 60.3798 0.317383H62.0902C62.5567 0.317383 62.7122 0.476224 62.7122 0.952748V15.725C62.7122 15.8838 62.7122 16.0427 62.5567 16.2015C62.4012 16.3603 62.2457 16.3603 62.0902 16.3603H58.9804C58.825 16.3603 58.6695 16.3603 58.514 16.2015C58.514 16.0427 58.3585 15.8838 58.3585 15.725V10.3244C58.3585 10.1655 58.3585 10.0067 58.203 9.84786C58.0475 9.68901 57.892 9.68901 57.7365 9.68901H57.581C56.8036 9.84786 56.0262 10.0067 55.2487 10.1655C54.4713 10.1655 53.8493 10.3244 53.2274 10.3244C52.9164 10.3244 52.6054 10.3244 52.4499 10.3244C52.2944 10.3244 51.9835 10.3244 51.9835 10.3244C52.2944 10.3244 52.6054 10.4832 52.7609 10.8009C52.9164 10.9597 53.0719 11.2774 53.0719 11.5951V15.8838C53.0719 16.0427 53.0719 16.2015 52.9164 16.3603C52.7609 16.5192 52.6054 16.5192 52.4499 16.5192H49.0292C48.8737 16.5192 48.7182 16.5192 48.5627 16.3603C48.5627 16.0427 48.4072 15.8838 48.4072 15.725Z" fill="#100E10"/>
<path d="M70.3313 15.7246V11.5948C70.3313 11.2771 70.3312 11.1182 70.1758 10.8006C70.1758 10.4829 70.0203 10.324 70.0203 10.1652L64.8892 0.952409C64.8892 0.952409 64.8892 0.793568 64.8892 0.634727C64.8892 0.475886 64.8892 0.475886 65.0446 0.317044C65.2001 0.158203 65.2001 0.158203 65.3556 0.158203H68.4654C68.6209 0.158203 68.7764 0.158203 68.9319 0.317044C69.0873 0.634727 69.2428 0.793568 69.2428 0.952409C69.8648 1.90546 70.3313 2.8585 70.7977 3.65271C71.1087 4.12923 71.2642 4.44692 71.4197 4.7646C71.5752 5.08228 71.7306 5.24112 71.8861 5.5588C72.0416 5.87649 72.1971 6.03533 72.1971 6.19417C72.3526 6.35301 72.3526 6.35301 72.3526 6.35301C72.3526 6.35301 72.3526 6.35301 72.5081 6.35301H72.6636C72.6636 6.35301 72.6636 6.19417 72.8191 6.03533C72.9746 5.87649 73.13 5.71765 73.13 5.39996C73.2855 5.08228 73.441 4.7646 73.5965 4.44692C73.752 4.12923 73.9075 3.81155 74.2185 3.49387C74.6849 2.69966 75.1514 1.74662 75.7733 0.793568C75.9288 0.475886 76.2398 0.317044 76.5508 0.317044H79.6605C79.816 0.317044 79.9715 0.317044 79.9715 0.475886C80.127 0.634727 80.127 0.634727 80.127 0.793568C80.127 0.952409 80.127 0.952409 80.127 1.11125C79.1941 2.69966 78.4166 4.28807 77.6392 5.5588C77.1727 6.35301 76.8618 6.98837 76.5508 7.4649C76.2398 7.94142 76.0843 8.41795 75.7733 8.73563C75.6179 9.21215 75.4624 9.52983 75.3069 9.68867C75.1514 10.0064 74.9959 10.1652 74.9959 10.1652C74.8404 10.324 74.8404 10.6417 74.6849 10.8006C74.6849 10.9594 74.5294 11.2771 74.5294 11.4359V15.5658C74.5294 15.7246 74.5294 15.8835 74.3739 16.0423C74.2185 16.2012 74.063 16.2012 73.9075 16.2012H70.6422C70.4867 16.2012 70.3312 16.2012 70.1758 16.0423C70.3312 16.0423 70.3313 15.8835 70.3313 15.7246Z" fill="#100E10"/>
<path d="M81.3711 10.1658C81.3711 10.007 81.3711 9.68931 81.3711 9.37163V8.1009V6.83017C81.3711 6.51249 81.3711 6.19481 81.3711 6.03597C81.3711 4.92408 81.6821 4.12987 81.993 3.33567C82.4595 2.54146 82.926 1.90609 83.5479 1.42957C84.1699 0.953047 84.9473 0.635365 85.8802 0.317682C86.8132 0.158841 87.7461 0 88.679 0C89.301 0 89.9229 0 90.3894 0.158841C91.0114 0.317682 91.6333 0.317682 92.0998 0.635365C92.7217 0.794206 93.1882 1.11189 93.6547 1.42957C94.1211 1.74725 94.5876 2.06494 94.8986 2.54146C95.8315 3.17682 96.1425 3.97103 96.1425 4.76524C96.1425 4.92408 96.1425 5.08292 95.987 5.08292C95.8315 5.24176 95.8315 5.24176 95.676 5.24176H92.0998C91.9443 5.24176 91.7888 5.24176 91.7888 5.08292C91.6333 5.08292 91.6333 4.92408 91.4778 4.92408C91.3223 4.76524 91.1668 4.6064 91.0114 4.44755C90.8559 4.28871 90.7004 4.12987 90.5449 3.97103C90.0784 3.65335 89.4565 3.49451 88.8345 3.49451C86.9687 3.49451 86.0357 4.44755 86.0357 6.19481C86.0357 6.35365 86.0357 6.67133 86.0357 6.98901V8.1009V9.21279C86.0357 9.53047 86.0357 9.84816 86.0357 10.007C86.0357 10.96 86.3467 11.7543 86.8132 12.2308C87.1242 12.7073 87.9016 12.8661 89.1455 12.8661C89.4565 12.8661 89.7675 12.8661 90.0784 12.8661C90.2339 12.8661 90.5449 12.8661 90.7004 12.7073C90.7004 12.7073 90.8559 12.7073 91.0114 12.5485C91.1668 12.5485 91.3223 12.3896 91.4778 12.2308C91.7888 11.9131 92.0998 11.5954 92.0998 11.1189C92.0998 10.8012 92.2553 10.6424 92.4108 10.4835C92.5662 10.3247 92.7217 10.1658 92.8772 10.007C93.0327 9.84816 93.1882 9.84816 93.3437 9.84816C93.4992 9.84816 93.6547 9.84816 93.8102 9.84816H89.612C89.4565 9.84816 89.301 9.84816 89.1455 9.68931C88.99 9.53047 88.99 9.37163 88.99 9.21279V8.89511C88.99 8.73627 88.99 8.41858 89.1455 8.25974C89.301 8.1009 89.301 7.78322 89.612 7.62438C89.7675 7.46554 89.9229 7.3067 90.2339 7.14786C90.5449 6.98901 90.7004 6.98901 91.1668 6.98901H94.5876C95.2095 6.98901 95.5205 7.14785 95.8315 7.46554C96.1425 7.78322 96.298 8.1009 96.298 8.73627V10.3247C96.298 11.4366 96.1425 12.3896 95.676 13.1838C95.2095 13.978 94.7431 14.6134 93.9656 15.0899C93.3437 15.5664 92.4108 15.8841 91.6333 16.2018C90.7004 16.5195 89.7675 16.5195 88.8345 16.5195C87.7461 16.5195 86.8132 16.3606 85.8802 16.2018C84.9473 15.8841 84.1699 15.5664 83.5479 15.0899C82.926 14.6134 82.304 13.978 81.993 13.1838C81.5266 12.2308 81.3711 11.2777 81.3711 10.1658Z" fill="#100E10"/>
<path d="M98.7856 15.725V2.38232C98.7856 1.74695 98.9411 1.27043 99.4076 0.952748C99.8741 0.635065 100.341 0.317383 100.807 0.317383H102.673C102.828 0.317383 102.984 0.317383 103.139 0.476224C103.295 0.635065 103.295 0.793906 103.295 0.952748V15.725C103.295 15.8838 103.295 16.0427 103.139 16.2015C102.984 16.3603 102.984 16.3603 102.673 16.3603H99.2521C99.0966 16.3603 98.9411 16.3603 98.7856 16.2015C98.9411 16.0427 98.7856 15.8838 98.7856 15.725Z" fill="#100E10"/>
<path d="M106.56 15.725V2.38232C106.56 1.74695 106.715 1.27043 107.182 0.952748C107.648 0.635065 108.115 0.317383 108.581 0.317383H118.222C118.377 0.317383 118.533 0.317383 118.688 0.476224C118.844 0.635065 118.844 0.793907 118.844 0.952748V3.17652C118.844 3.33537 118.844 3.49421 118.688 3.49421C118.533 3.65305 118.377 3.65305 118.222 3.65305H109.514C109.825 3.65305 110.136 3.81189 110.447 3.97073C110.758 4.28841 110.758 4.44725 110.758 4.76494V5.71798C110.758 5.87683 110.758 6.03567 110.914 6.19451C111.069 6.35335 111.225 6.35335 111.38 6.35335H116.511C116.978 6.35335 117.133 6.51219 117.133 6.98871V9.05365C117.133 9.37133 116.978 9.68901 116.511 9.68901H109.359C109.67 9.68901 109.981 9.84786 110.292 10.0067C110.603 10.3244 110.603 10.4832 110.603 10.8009V11.9128C110.603 12.0716 110.603 12.2305 110.758 12.3893C110.914 12.5482 111.069 12.5482 111.225 12.5482H118.066C118.222 12.5482 118.377 12.5482 118.533 12.707C118.688 12.8658 118.688 13.0247 118.688 13.1835V15.4073C118.688 15.5661 118.688 15.725 118.533 15.8838C118.377 16.0427 118.222 16.0427 118.066 16.0427H106.715C106.56 16.0427 106.405 16.0427 106.249 15.8838C106.715 16.0427 106.56 15.8838 106.56 15.725Z" fill="#100E10"/>
</g>
<g clip-path="url(#clip2_2008_11980)">
<path d="M48.4072 45.3433C48.4072 45.8199 48.8737 46.2964 49.4956 46.2964H68.9317C69.2427 46.2964 69.5536 46.2964 69.7091 45.9787C69.8646 45.8199 70.0201 45.661 70.0201 45.3433V41.69C70.0201 41.0546 69.7091 40.737 68.9317 40.737H57.1146C56.4926 40.737 55.8707 40.2604 55.8707 39.6251V37.8778C55.8707 36.7659 54.7823 35.9717 53.6938 35.9717H65.9774C66.5994 35.9717 67.0658 35.4952 67.0658 35.0187V31.683C67.0658 31.0476 66.5994 30.73 65.9774 30.73H57.1146C56.4926 30.73 55.8707 30.2534 55.8707 29.6181V28.0297C55.8707 26.9178 54.7823 25.9647 53.6938 25.9647H68.6207C68.9317 25.9647 69.2427 25.9647 69.3981 25.647C69.5536 25.4882 69.7091 25.3294 69.7091 25.0117V21.3583C69.7091 20.723 69.2427 20.4053 68.6207 20.4053H51.9835C49.9621 20.4053 48.4072 21.8348 48.4072 23.5821V45.3433Z" fill="#100E10"/>
<path d="M98.3193 28.9827C98.3193 22.7879 93.4992 20.4053 87.1241 20.4053H78.2613C77.7948 20.4053 77.4839 20.4053 77.0174 20.5641C75.618 21.0406 74.6851 22.1525 74.6851 23.5821V45.3433C74.6851 45.8199 75.1515 46.2964 75.7735 46.2964H81.5266C81.8375 46.2964 82.1485 46.1376 82.304 45.9787C82.4595 45.8199 82.615 45.661 82.615 45.3433V38.5132C82.615 37.8778 83.0814 37.4013 83.8589 37.4013H87.2796C93.0327 37.4013 98.3193 35.3363 98.3193 28.9827ZM90.3894 28.8239C90.3894 30.8888 88.99 32.0007 86.8132 32.0007H83.5479C83.2369 32.0007 82.9259 31.8418 82.7705 31.683C82.4595 31.5242 82.304 31.2065 82.304 30.8888V27.712C82.304 27.0766 81.993 26.6001 81.5266 26.1236C81.2156 25.9647 81.0601 25.8059 80.7491 25.647C80.4381 25.647 80.2826 25.4882 79.9717 25.4882H86.8132C89.301 25.647 90.3894 26.7589 90.3894 28.8239Z" fill="#100E10"/>
<path d="M101.895 45.5022C101.895 46.1376 102.362 46.4552 102.984 46.4552H108.737C109.048 46.4552 109.359 46.4552 109.514 46.1376C109.67 45.9787 109.67 45.661 109.67 45.5022V21.3583C109.67 21.0406 109.514 20.8818 109.359 20.723C109.203 20.5641 108.892 20.4053 108.581 20.4053H105.316C103.295 20.4053 101.74 21.8348 101.74 23.5821V45.5022H101.895Z" fill="#100E10"/>
<path d="M127.085 46.7729C130.972 46.7729 133.926 45.9787 136.103 44.2314C139.679 41.3723 139.679 37.4012 139.679 33.4302C139.679 32.7948 139.679 31.683 139.524 30.2534C139.213 23.2644 134.081 19.9287 126.929 19.9287C119.777 19.9287 114.49 23.2644 114.334 30.2534C114.334 30.8888 114.334 32.0006 114.334 33.4302C114.334 34.8598 114.334 35.9717 114.334 36.607C114.645 43.5961 119.777 46.7729 127.085 46.7729ZM127.085 41.2134C123.819 41.2134 122.42 39.3073 122.264 36.4482C122.264 35.8128 122.264 34.7009 122.264 33.4302C122.264 32.1595 122.264 31.0476 122.264 30.4122C122.42 27.5531 123.664 25.647 127.085 25.647C130.35 25.647 131.749 27.5531 131.749 30.4122C131.749 31.8418 131.905 32.7948 131.905 33.4302C131.905 34.0656 131.905 35.0186 131.749 36.4482C131.749 39.1485 130.194 41.2134 127.085 41.2134Z" fill="#100E10"/>
<path d="M168.289 46.1372C168.444 45.9784 168.6 45.8195 168.6 45.5018C168.6 45.343 168.6 45.1842 168.444 45.0253L159.737 33.1122C159.581 32.9534 159.581 32.9534 159.737 32.7945L167.822 21.5168C167.978 21.358 167.978 21.1991 167.978 21.0403C167.978 20.8815 167.822 20.7226 167.667 20.4049C167.511 20.2461 167.2 20.2461 167.045 20.2461H160.981C160.359 20.2461 159.892 20.5638 159.581 21.0403L154.917 27.2351C154.761 27.2351 154.761 27.2351 154.606 27.0763L150.252 21.0403C149.941 20.4049 149.475 20.2461 148.853 20.2461H142.633C142.167 20.2461 141.856 20.5638 141.856 21.0403C141.856 21.1991 141.856 21.358 142.011 21.5168L150.097 32.9534C150.097 33.1122 150.097 33.1122 150.097 33.2711L141.389 45.1842C141.234 45.343 141.234 45.343 141.234 45.6607C141.234 45.8195 141.389 45.9784 141.545 46.2961C141.7 46.4549 142.011 46.4549 142.167 46.4549H148.386C149.008 46.4549 149.475 46.1372 149.786 45.6607L154.761 38.9894C154.917 38.9894 154.917 38.9894 155.072 38.9894L160.048 45.5018C160.359 45.9784 160.825 46.2961 161.447 46.2961H167.822C167.822 46.4549 167.978 46.296 168.289 46.1372Z" fill="#100E10"/>
</g>
<g clip-path="url(#clip3_2008_11980)">
<path d="M0 64.5842C0 61.2485 2.48781 58.707 5.90856 58.707C7.61893 58.707 9.01833 59.3424 9.95126 60.4543L9.3293 61.2485C8.39637 60.2954 7.30795 59.8189 6.06405 59.8189C3.42074 59.8189 1.24391 61.8839 1.24391 64.5842C1.24391 67.2845 3.26526 69.3494 6.06405 69.3494C7.30795 69.3494 8.55186 68.8729 9.3293 67.9198L10.1067 68.714C9.17381 69.8259 7.61893 70.4613 5.90856 70.4613C2.48781 70.4613 0 67.9198 0 64.5842Z" fill="#100E10"/>
<path d="M11.04 66.014C11.04 63.4725 12.9059 61.5664 15.3937 61.5664C17.8815 61.5664 19.7474 63.3137 19.7474 66.014C19.7474 68.5554 17.8815 70.4615 15.3937 70.4615C12.9059 70.4615 11.04 68.5554 11.04 66.014ZM18.5035 66.014C18.5035 63.949 17.1041 62.6783 15.3937 62.6783C13.5279 62.6783 12.2839 63.949 12.2839 66.014C12.2839 68.0789 13.6833 69.3496 15.3937 69.3496C17.2596 69.3496 18.5035 68.0789 18.5035 66.014Z" fill="#100E10"/>
<path d="M29.8538 65.3779V70.4608H28.7654V65.5367C28.7654 63.7895 27.8324 62.8364 26.2776 62.8364C24.4117 62.8364 23.3233 63.9483 23.3233 66.0132V70.6196H22.2349V62.0422H23.3233V63.6306C23.9452 62.5187 25.0337 62.0422 26.5885 62.0422C28.4544 61.7245 29.8538 62.8364 29.8538 65.3779Z" fill="#100E10"/>
<path d="M38.872 68.0789L39.6495 68.7143C39.0275 69.8261 37.7836 70.4615 36.3842 70.4615L36.2287 71.2557C37.1617 71.4146 37.6281 71.8911 37.6281 72.5264C37.6281 73.4795 36.8507 73.956 35.7623 73.956C35.2958 73.956 34.8293 73.7972 34.3629 73.6383L34.6738 73.003C34.9848 73.1618 35.2958 73.3206 35.7623 73.3206C36.3842 73.3206 36.6952 73.003 36.6952 72.5264C36.6952 72.0499 36.3842 71.7322 35.7623 71.7322H35.4513L35.7623 70.3027C33.5854 69.985 32.186 68.2377 32.186 66.014C32.186 63.4725 34.0519 61.5664 36.5397 61.5664C37.9391 61.5664 39.183 62.2018 39.805 63.3137L38.872 63.949C38.2501 63.1548 37.3171 62.6783 36.3842 62.6783C34.5184 62.6783 33.119 63.949 33.119 66.014C33.119 68.0789 34.5184 69.3496 36.3842 69.3496C37.4726 69.3496 38.4056 69.0319 38.872 68.0789Z" fill="#100E10"/>
<path d="M49.6006 61.7249V70.3023H48.5122V68.7139C47.8902 69.8258 46.8018 70.3023 45.4024 70.3023C43.2256 70.3023 41.8262 69.0316 41.8262 66.649V61.5661H42.9146V66.4901C42.9146 68.3962 43.8475 69.1904 45.4024 69.1904C47.1128 69.1904 48.3567 68.0786 48.3567 66.0136V61.4072H49.6006V61.7249Z" fill="#100E10"/>
<path d="M65.6163 66.0133C65.6163 68.7136 63.7504 70.4609 61.4181 70.4609C60.0187 70.4609 58.9303 69.8255 58.1529 68.7136V73.4789H57.0645V61.7246H58.1529V63.4719C58.7748 62.36 60.0187 61.7246 61.4181 61.7246C63.9059 61.7246 65.6163 63.4719 65.6163 66.0133ZM64.5279 66.0133C64.5279 63.9484 63.1285 62.6777 61.4181 62.6777C59.5523 62.6777 58.3084 64.1072 58.3084 66.0133C58.3084 68.0783 59.7078 69.349 61.4181 69.349C63.1285 69.349 64.5279 68.0783 64.5279 66.0133Z" fill="#100E10"/>
<path d="M67.1709 66.014C67.1709 63.4725 69.0368 61.5664 71.5246 61.5664C74.0124 61.5664 75.8782 63.3137 75.8782 66.014C75.8782 68.5554 74.0124 70.4615 71.5246 70.4615C69.0368 70.4615 67.1709 68.5554 67.1709 66.014ZM74.6343 66.014C74.6343 63.949 73.2349 62.6783 71.5246 62.6783C69.6587 62.6783 68.4148 63.949 68.4148 66.014C68.4148 68.0789 69.8142 69.3496 71.5246 69.3496C73.2349 69.3496 74.6343 68.0789 74.6343 66.014Z" fill="#100E10"/>
<path d="M85.6743 61.7249V70.3023H84.5859V68.7139C83.964 69.8258 82.8755 70.3023 81.4761 70.3023C79.2993 70.3023 77.8999 69.0316 77.8999 66.649V61.5661H78.9883V66.4901C78.9883 68.3962 79.9213 69.1904 81.4761 69.1904C83.1865 69.1904 84.4304 68.0786 84.4304 66.0136V61.4072H85.6743V61.7249Z" fill="#100E10"/>
<path d="M93.1376 61.7246V62.8365C92.9822 62.8365 92.9821 62.8365 92.8267 62.8365C91.1163 62.8365 90.0279 63.9484 90.0279 66.0133V70.4609H88.9395V61.8835H90.0279V63.6307C90.4943 62.2011 91.5828 61.7246 93.1376 61.7246Z" fill="#100E10"/>
<path d="M100.601 58.2305H99.5127V70.4612H100.601V58.2305Z" fill="#100E10"/>
<path d="M111.329 66.3316H104.177C104.333 68.0789 105.732 69.3496 107.442 69.3496C108.531 69.3496 109.464 69.0319 110.086 68.2377L110.708 69.0319C109.93 69.985 108.842 70.4615 107.442 70.4615C104.799 70.4615 102.933 68.5554 102.933 66.014C102.933 63.4725 104.643 61.5664 107.131 61.5664C109.464 61.5664 111.174 63.3137 111.174 66.014C111.329 66.1728 111.329 66.3316 111.329 66.3316ZM104.177 65.5374H110.241C110.086 63.7902 108.842 62.6783 107.287 62.6783C105.576 62.6783 104.333 63.7902 104.177 65.5374Z" fill="#100E10"/>
<path d="M112.418 69.3493L112.884 68.3962C113.506 68.8728 114.75 69.3493 115.839 69.3493C117.394 69.3493 118.171 68.7139 118.171 67.9197C118.171 65.6959 112.729 67.4432 112.729 63.9487C112.729 62.5191 113.973 61.4072 116.15 61.4072C117.238 61.4072 118.482 61.7249 119.104 62.2014L118.638 63.1545C117.86 62.678 117.083 62.3603 116.15 62.3603C114.595 62.3603 113.973 62.9956 113.973 63.7898C113.973 66.1725 119.415 64.4252 119.415 67.7609C119.415 69.1904 118.171 70.3023 115.994 70.3023C114.439 70.4612 113.195 69.9846 112.418 69.3493Z" fill="#100E10"/>
<path d="M124.546 69.3493L125.013 68.3962C125.635 68.8728 126.879 69.3493 127.967 69.3493C129.522 69.3493 130.299 68.7139 130.299 67.9197C130.299 65.6959 124.857 67.4432 124.857 63.9487C124.857 62.5191 126.101 61.4072 128.278 61.4072C129.367 61.4072 130.61 61.7249 131.232 62.2014L130.766 63.1545C129.988 62.678 129.211 62.3603 128.278 62.3603C126.723 62.3603 126.101 62.9956 126.101 63.7898C126.101 66.1725 131.543 64.4252 131.543 67.7609C131.543 69.1904 130.299 70.3023 128.123 70.3023C126.568 70.4612 125.168 69.9846 124.546 69.3493Z" fill="#100E10"/>
<path d="M132.787 66.014C132.787 63.4725 134.653 61.5664 137.141 61.5664C139.629 61.5664 141.494 63.3137 141.494 66.014C141.494 68.5554 139.629 70.4615 137.141 70.4615C134.497 70.4615 132.787 68.5554 132.787 66.014ZM140.251 66.014C140.251 63.949 138.851 62.6783 137.141 62.6783C135.275 62.6783 134.031 63.949 134.031 66.014C134.031 68.0789 135.43 69.3496 137.141 69.3496C138.851 69.3496 140.251 68.0789 140.251 66.014Z" fill="#100E10"/>
<path d="M143.36 59.0247C143.36 58.5482 143.671 58.2305 144.138 58.2305C144.604 58.2305 144.915 58.5482 144.915 59.0247C144.915 59.5012 144.604 59.8189 144.138 59.8189C143.827 59.8189 143.36 59.5012 143.36 59.0247ZM143.671 61.725H144.76V70.3024H143.671V61.725Z" fill="#100E10"/>
<path d="M155.799 61.7246V69.349C155.799 72.367 154.4 73.6377 151.601 73.6377C150.046 73.6377 148.491 73.1612 147.714 72.367L148.335 71.4139C149.113 72.2081 150.357 72.5258 151.601 72.5258C153.778 72.5258 154.711 71.5728 154.711 69.349V68.3959C153.933 69.5078 152.845 69.9844 151.445 69.9844C148.957 69.9844 147.247 68.2371 147.247 65.8545C147.247 63.313 149.113 61.7246 151.445 61.7246C152.845 61.7246 154.089 62.36 154.866 63.4719V61.8835H155.799V61.7246ZM154.711 65.8545C154.711 63.9484 153.311 62.6777 151.445 62.6777C149.579 62.6777 148.18 63.9484 148.18 65.8545C148.18 67.7606 149.579 69.0313 151.445 69.0313C153.311 69.0313 154.711 67.7606 154.711 65.8545Z" fill="#100E10"/>
<path d="M166.839 65.3779V70.4608H165.751V65.5367C165.751 63.7895 164.818 62.8364 163.263 62.8364C161.397 62.8364 160.309 63.9483 160.309 66.0132V70.6196H159.22V62.0422H160.309V63.6306C160.931 62.5187 162.019 62.0422 163.574 62.0422C165.44 61.7245 166.839 62.8364 166.839 65.3779Z" fill="#100E10"/>
<path d="M176.324 65.0606V70.4612H175.235V69.1905C174.769 70.1436 173.681 70.6201 172.281 70.6201C170.415 70.6201 169.171 69.667 169.171 68.0786C169.171 66.8079 169.949 65.696 172.437 65.696H175.08V65.2195C175.08 63.7899 174.302 62.9957 172.748 62.9957C171.659 62.9957 170.571 63.3134 169.949 63.9487L169.482 63.1545C170.26 62.3603 171.659 62.0426 172.903 62.0426C175.08 61.725 176.324 62.8369 176.324 65.0606ZM175.235 67.7609V66.3314H172.592C170.882 66.3314 170.415 66.9667 170.415 67.9198C170.415 68.8728 171.193 69.5082 172.592 69.5082C173.836 69.5082 174.769 68.8728 175.235 67.7609Z" fill="#100E10"/>
<path d="M187.208 65.3779V70.4608H186.119V65.5367C186.119 63.7895 185.186 62.8364 183.632 62.8364C181.766 62.8364 180.677 63.9483 180.677 66.0132V70.6196H179.589V62.0422H180.677V63.6306C181.299 62.5187 182.388 62.0422 183.943 62.0422C185.808 61.7245 187.208 62.8364 187.208 65.3779Z" fill="#100E10"/>
<path d="M194.827 69.8263C194.36 70.3029 193.738 70.4617 193.116 70.4617C191.562 70.4617 190.629 69.5086 190.629 67.9202V62.6785H189.074V61.7254H190.629V59.8193H191.717V61.7254H194.36V62.6785H191.717V67.7614C191.717 68.7144 192.183 69.3498 193.116 69.3498C193.583 69.3498 194.049 69.191 194.36 68.8733L194.827 69.8263Z" fill="#100E10"/>
<path d="M195.76 69.3493L196.226 68.3962C196.848 68.8728 198.092 69.3493 199.18 69.3493C200.735 69.3493 201.513 68.7139 201.513 67.9197C201.513 65.6959 196.071 67.4432 196.071 63.9487C196.071 62.5191 197.315 61.4072 199.491 61.4072C200.58 61.4072 201.824 61.7249 202.446 62.2014L201.979 63.1545C201.202 62.678 200.424 62.3603 199.491 62.3603C197.937 62.3603 197.315 62.9956 197.315 63.7898C197.315 66.1725 202.757 64.4252 202.757 67.7609C202.757 69.1904 201.513 70.3023 199.336 70.3023C197.781 70.4612 196.382 69.9846 195.76 69.3493Z" fill="#100E10"/>
<path d="M208.665 69.6674C208.665 69.1909 208.976 68.8732 209.442 68.8732C209.909 68.8732 210.22 69.1909 210.22 69.6674C210.22 70.1439 209.909 70.4616 209.442 70.4616C208.976 70.4616 208.665 69.9851 208.665 69.6674ZM208.821 58.8662H210.22L209.909 66.9671H208.976L208.821 58.8662Z" fill="#100E10"/>
</g>
<defs>
<clipPath id="clip0_2008_11980">
<rect width="34.7717" height="48.2877" fill="white"/>
</clipPath>
<clipPath id="clip1_2008_11980">
<rect width="70.4362" height="16.5195" fill="white" transform="translate(48.4077)"/>
</clipPath>
<clipPath id="clip2_2008_11980">
<rect width="120.192" height="26.8442" fill="white" transform="translate(48.4077 19.9287)"/>
</clipPath>
<clipPath id="clip3_2008_11980">
<rect width="210.22" height="15.7253" fill="white" transform="translate(0 58.2305)"/>
</clipPath>
</defs>
</svg>
