<svg width="282" height="73" viewBox="0 0 282 73" fill="none" xmlns="http://www.w3.org/2000/svg">
<g clip-path="url(#clip0_2002_10486)">
<path d="M73.1589 3.0315V21.4047C73.1589 22.9433 72.0058 24.2471 70.481 24.4138C58.2752 25.7478 48.7701 36.079 48.7701 48.6309V69.9678C48.7701 71.6429 47.4122 72.9996 45.7357 72.9996H27.4156C25.7391 72.9996 24.3812 71.6429 24.3812 69.9678V48.6309C24.3812 36.079 14.8836 25.7403 2.67025 24.4138C1.15306 24.2471 0 22.9433 0 21.4047V3.0315C0 1.29575 1.46409 -0.106493 3.20127 -0.000377227C10.8782 0.499882 18.0773 2.76621 24.3812 6.41204C28.0528 8.53435 31.4286 11.1266 34.4174 14.1054C35.616 15.2954 37.5353 15.2954 38.7263 14.1054C41.7075 11.1342 45.0833 8.54193 48.7625 6.41962C55.074 2.78137 62.2655 0.507462 69.95 -0.000377227C71.6872 -0.114073 73.1513 1.28817 73.1513 3.0315H73.1589Z" fill="#FE5000"/>
<path d="M97.54 59.2658V23.5275C97.54 22.0192 98.0711 20.7609 99.1255 19.7377C100.18 18.722 101.424 18.2066 102.85 18.2066H106.711C107.956 18.2066 108.957 19.2147 108.957 20.4502V33.9647C108.957 34.6545 109.2 35.132 109.693 35.3973C110.178 35.6626 110.565 35.7914 110.853 35.7914C113.379 35.7535 115.481 35.5565 117.172 35.2078C118.864 34.8591 120.503 34.3437 122.088 33.6464C122.414 33.4872 122.695 33.2598 122.945 32.9718C123.188 32.6838 123.31 32.3199 123.31 31.8727V23.5048C123.31 22.6937 123.461 21.9585 123.765 21.3067C124.068 20.6548 124.478 20.0939 124.986 19.624C125.494 19.154 126.063 18.7978 126.693 18.5552C127.322 18.3127 127.967 18.1914 128.612 18.1914H132.473C133.717 18.1914 134.719 19.1995 134.719 20.435V59.243C134.719 59.7281 134.575 60.1071 134.294 60.3724C134.006 60.6377 133.626 60.7665 133.133 60.7665H124.887C124.478 60.7665 124.114 60.6225 123.787 60.3421C123.461 60.054 123.302 59.6902 123.302 59.243V44.7658C123.302 44.1518 123.105 43.7046 122.725 43.4242C122.338 43.1362 121.921 42.9997 121.474 42.9997C121.314 42.9997 121.11 43.0376 120.867 43.121C118.872 43.6895 116.869 44.0609 114.851 44.2201C112.833 44.3868 111.058 44.4626 109.511 44.4626C108.699 44.4626 108.001 44.455 107.432 44.4323C106.863 44.4096 106.416 44.402 106.089 44.402C106.901 44.5233 107.584 44.8795 108.138 45.4707C108.684 46.0619 108.964 46.7668 108.964 47.5779V59.243C108.964 59.7281 108.82 60.1071 108.54 60.3724C108.251 60.6377 107.865 60.7665 107.379 60.7665H99.0724C98.6248 60.7665 98.2607 60.6225 97.9724 60.3421C97.6842 60.054 97.5476 59.6902 97.5476 59.243L97.54 59.2658Z" fill="#FE5000"/>
<path d="M154.632 59.2662V48.3894C154.632 47.7375 154.548 47.0781 154.389 46.4035C154.23 45.7289 154.017 45.1756 153.775 44.7208L140.507 20.1626C140.385 19.9579 140.325 19.7381 140.325 19.488C140.325 19.1621 140.454 18.8665 140.727 18.6012C141 18.3359 141.288 18.207 141.614 18.207H149.663C150.111 18.207 150.551 18.3207 150.983 18.5405C151.415 18.7679 151.711 19.1014 151.871 19.5486C153.342 22.1939 154.677 24.5816 155.861 26.6963C156.559 28 157.12 29.0308 157.552 29.7812C157.985 30.5316 158.372 31.2365 158.721 31.8884C159.07 32.5402 159.373 33.0935 159.639 33.5407C159.904 33.9879 160.056 34.2532 160.101 34.3366C160.185 34.4579 160.283 34.5185 160.412 34.5185C160.541 34.5185 160.617 34.4579 160.655 34.3366C160.693 34.2532 160.852 33.9804 161.118 33.5104C161.383 33.0405 161.709 32.4644 162.104 31.7671C162.491 31.0773 162.931 30.2815 163.424 29.3871C163.917 28.4927 164.41 27.5983 164.896 26.6963C166.079 24.5816 167.414 22.1939 168.886 19.5486C169.417 18.6542 170.153 18.207 171.093 18.207H179.142C179.468 18.207 179.764 18.3435 180.03 18.6012C180.295 18.8665 180.432 19.1621 180.432 19.488C180.432 19.7305 180.371 19.9579 180.25 20.1626C177.875 24.5588 175.721 28.5078 173.801 32.0096C172.656 34.1699 171.746 35.8677 171.071 37.1108C170.395 38.3538 169.773 39.5135 169.197 40.5899C168.62 41.6662 168.135 42.5833 167.725 43.3413C167.316 44.0917 167.073 44.5313 166.989 44.6526C166.701 45.1832 166.489 45.7592 166.345 46.3959C166.2 47.025 166.132 47.6314 166.132 48.1999V59.2586C166.132 59.7437 165.988 60.1227 165.7 60.388C165.411 60.6533 165.025 60.7822 164.531 60.7822H156.179C155.732 60.7822 155.36 60.6381 155.072 60.3577C154.784 60.0697 154.639 59.7058 154.639 59.2586L154.632 59.2662Z" fill="#FE5000"/>
<path d="M182.419 44.9251C182.381 44.3566 182.358 43.6213 182.358 42.7042V36.1099C182.358 35.1776 182.381 34.4272 182.419 33.8587C182.503 31.0618 183.056 28.6515 184.088 26.6277C185.12 24.6039 186.478 22.944 188.177 21.6402C189.876 20.3441 191.848 19.3815 194.109 18.7524C196.37 18.1233 198.79 17.8125 201.376 17.8125C202.871 17.8125 204.396 17.9338 205.951 18.1763C207.506 18.4189 209.015 18.8054 210.495 19.3284C211.966 19.859 213.347 20.5412 214.644 21.3977C215.934 22.2466 217.064 23.285 218.035 24.4978C219.567 26.4458 220.356 28.4468 220.394 30.5161C220.394 30.8799 220.265 31.1982 220 31.4559C219.734 31.7212 219.423 31.8501 219.059 31.8501H209.728C209.281 31.8501 208.977 31.7667 208.818 31.6075C208.818 31.6075 208.818 31.6075 208.811 31.6075C208.446 31.4029 208.189 31.0542 208.006 30.6828C207.787 30.2432 207.529 29.8339 207.218 29.4549C206.861 29.0229 206.451 28.606 205.973 28.1891C205.89 28.1209 205.807 28.0527 205.723 27.992C204.608 27.2416 203.159 26.8702 201.369 26.8702C196.726 26.8702 194.299 29.3033 194.101 34.1619C194.064 34.7304 194.041 35.4353 194.041 36.2918V42.4313C194.041 43.3257 194.064 44.0534 194.101 44.6219C194.185 47.1762 194.83 49.0863 196.036 50.3673C197.25 51.6407 199.366 52.2849 202.393 52.2849C203.364 52.2849 204.153 52.2546 204.752 52.194C205.359 52.1333 205.875 52.0348 206.3 51.8908C206.724 51.7468 207.089 51.5649 207.392 51.3451C207.665 51.148 207.961 50.9206 208.287 50.6705C208.355 50.6174 208.424 50.5568 208.492 50.4961C209.326 49.7003 209.88 48.7376 210.153 47.6083C210.313 46.964 210.571 46.4107 210.912 45.9635C211.253 45.5163 211.64 45.1676 212.065 44.9023C212.49 44.637 212.915 44.4475 213.339 44.3263C213.764 44.205 214.113 44.1443 214.401 44.1443H203.682C203.197 44.1443 202.825 43.9928 202.56 43.6896C202.294 43.3864 202.165 43.015 202.165 42.5678V41.5369C202.165 40.9306 202.279 40.309 202.499 39.6799C202.719 39.0508 203.053 38.4975 203.5 38.0048C203.94 37.5197 204.487 37.1104 205.139 36.792C205.784 36.4661 206.535 36.3069 207.377 36.3069H216.343C217.838 36.3069 218.915 36.7011 219.583 37.4894C220.25 38.2777 220.584 39.3464 220.584 40.6804V44.872C220.584 47.7523 220.061 50.2308 219.006 52.3153C217.959 54.3997 216.556 56.1127 214.796 57.4543C213.036 58.7883 211.003 59.7812 208.682 60.4331C206.36 61.085 203.925 61.4033 201.384 61.4033C198.843 61.4033 196.248 61.0774 193.965 60.4331C191.682 59.7888 189.702 58.7883 188.033 57.4543C186.356 56.1203 185.021 54.4072 184.035 52.3153C183.049 50.2308 182.51 47.7674 182.427 44.9326L182.419 44.9251Z" fill="#FE5000"/>
<path d="M249.608 59.2655V23.5272C249.608 21.981 250.132 20.7076 251.186 19.7071C252.24 18.7065 253.477 18.2139 254.896 18.2139H279.709C280.111 18.2139 280.475 18.3806 280.802 18.699C281.128 19.0249 281.287 19.3887 281.287 19.798V25.8466C281.287 26.2938 281.128 26.6425 280.802 26.885C280.521 27.1731 280.149 27.3095 279.709 27.3095H257.209C258.18 27.3095 258.984 27.6582 259.614 28.3479C260.244 29.0377 260.555 29.7956 260.555 30.6067V33.1686C260.555 33.6158 260.714 34.0478 261.04 34.4496C261.366 34.8589 261.829 35.0635 262.436 35.0635H275.628C276.682 35.0635 277.206 35.5941 277.206 36.6553V42.1505C277.206 43.2117 276.682 43.7423 275.628 43.7423H257.202C258.135 43.7423 258.924 44.0682 259.576 44.72C260.221 45.3719 260.547 46.1071 260.547 46.9182V49.7909C260.547 50.2381 260.722 50.6701 261.063 51.0718C261.404 51.4811 261.867 51.6858 262.428 51.6858H280.187C280.635 51.6858 281.006 51.8374 281.31 52.1406C281.613 52.4437 281.765 52.8227 281.765 53.2699V59.2579C281.765 59.7051 281.606 60.0765 281.28 60.3569C280.953 60.645 280.589 60.7814 280.187 60.7814H251.118C250.67 60.7814 250.306 60.6374 250.025 60.3569C249.745 60.0689 249.601 59.7051 249.601 59.2579L249.608 59.2655Z" fill="#FE5000"/>
<path d="M228.929 59.2655V23.5272C228.929 21.981 229.46 20.7076 230.514 19.7071C231.569 18.7065 232.805 18.2139 234.231 18.2139H239.109C239.595 18.2139 239.959 18.3579 240.209 18.6383C240.49 18.9264 240.634 19.2902 240.634 19.7374V59.2579C240.634 59.7051 240.49 60.0765 240.209 60.3569C239.966 60.645 239.602 60.7814 239.109 60.7814H230.461C230.013 60.7814 229.649 60.6374 229.361 60.3569C229.073 60.0689 228.936 59.7051 228.936 59.2579L228.929 59.2655Z" fill="#FE5000"/>
</g>
<defs>
<clipPath id="clip0_2002_10486">
<rect width="281.78" height="73" fill="white"/>
</clipPath>
</defs>
</svg>
