<svg width="280" height="101" viewBox="0 0 280 101" fill="none" xmlns="http://www.w3.org/2000/svg">
<g clip-path="url(#clip0_1997_9975)">
<path d="M98.2439 100.7H64.6284L0 36.0716V2.45605L98.2439 100.7Z" fill="#F6F6F6"/>
<path d="M60.1199 23.7545H59.8266H26.211L2.45654 0H36.0721H83.8744H100.7V16.7894L76.7993 40.7272L100.7 64.6284V98.2439L43.1838 40.7272L60.1199 23.7545Z" fill="#F6F6F6"/>
<path d="M38.2711 79.2182L16.7894 100.7H0V83.8737L21.445 62.4287L38.2711 79.2182Z" fill="#F6F6F6"/>
<path d="M137.542 46.6286H134.756V54.2902H124.455V23.7539H139.155C147.659 23.7539 153.085 28.1895 153.085 35.2646C153.085 39.6636 150.995 42.9994 147.329 44.869L153.744 54.2902H142.747L137.542 46.6286ZM138.495 31.7087H134.756V38.8571H138.495C141.317 38.8571 142.674 37.5007 142.674 35.2646C142.674 33.0651 141.354 31.7087 138.495 31.7087Z" fill="#F6F6F6"/>
<path d="M155.614 40.58V23.7539H165.915V40.2501C165.915 44.9057 167.711 46.6653 170.571 46.6653C173.43 46.6653 175.226 44.9057 175.226 40.2501V23.7539H185.344V40.5434C185.344 49.7079 179.845 54.9867 170.461 54.9867C161.113 54.9867 155.614 49.7079 155.614 40.58Z" fill="#F6F6F6"/>
<path d="M219.069 45.8954C219.069 51.2109 214.561 54.3268 206.166 54.3268H188.973V23.7539H205.286C213.717 23.7539 217.64 27.1265 217.64 31.7454C217.64 34.5681 216.21 36.9508 213.424 38.3439C216.98 39.6636 219.069 42.2663 219.069 45.8954ZM199.091 30.9756V35.5212H203.893C206.202 35.5212 207.266 34.7514 207.266 33.2484C207.266 31.7454 206.202 30.9756 203.893 30.9756H199.091ZM208.695 44.7224C208.695 43.1461 207.559 42.3396 205.286 42.3396H199.091V47.1418H205.286C207.559 47.1052 208.695 46.262 208.695 44.7224Z" fill="#F6F6F6"/>
<path d="M247.003 46.5553V54.3268H221.599V23.7539H246.416V31.5254H231.716V35.1179H244.62V42.5229H231.716V46.5553H247.003Z" fill="#F6F6F6"/>
<path d="M279.959 23.7539V54.2902H271.491L259.907 40.4334V54.2902H249.862V23.7539H258.33L269.951 37.6107V23.7539H279.959Z" fill="#F6F6F6"/>
<path d="M124.455 57.2959H127.241V74.4519H137.835V76.8714H124.418V57.2959H124.455Z" fill="#F6F6F6"/>
<path d="M154.624 74.4886V76.908H140.401V57.2959H154.221V59.7153H143.187V65.7273H153.011V68.1101H143.187V74.4519H154.624V74.4886Z" fill="#F6F6F6"/>
<path d="M162.323 59.7524H155.614V57.333H171.817V59.7524H165.109V76.9085H162.323V59.7524Z" fill="#F6F6F6"/>
<path d="M174.163 57.2959H176.949V76.908H174.163V57.2959Z" fill="#F6F6F6"/>
<path d="M180.358 74.6721L181.385 72.4726C182.851 73.7923 185.344 74.7454 187.837 74.7454C191.209 74.7454 192.676 73.4257 192.676 71.7394C192.676 66.9372 180.798 69.9798 180.798 62.6849C180.798 59.6789 183.144 57.0762 188.313 57.0762C190.623 57.0762 193.005 57.6994 194.618 58.7991L193.702 61.0353C191.979 59.9355 190.073 59.4223 188.313 59.4223C184.977 59.4223 183.548 60.8153 183.548 62.5382C183.548 67.3405 195.425 64.3345 195.425 71.5195C195.425 74.5255 193.005 77.0915 187.837 77.0915C184.867 77.1282 181.935 76.1384 180.358 74.6721Z" fill="#F6F6F6"/>
<path d="M202.463 59.7524H195.755V57.333H211.958V59.7524H205.249V76.9085H202.463V59.7524Z" fill="#F6F6F6"/>
</g>
<defs>
<clipPath id="clip0_1997_9975">
<rect width="279.958" height="100.7" fill="white"/>
</clipPath>
</defs>
</svg>
