<svg width="51" height="85" viewBox="0 0 51 85" fill="none" xmlns="http://www.w3.org/2000/svg">
<path d="M9.12922 63.2862V65.2049C8.39488 65.5958 7.47102 65.7734 6.61824 65.7734C3.85853 65.7734 1.9516 63.8665 1.9516 61.3674C1.9516 58.8801 3.85853 56.9376 6.61824 56.9376C7.48287 56.9376 8.32381 57.139 8.99893 57.4706V59.3776C8.37119 58.9512 7.50656 58.6314 6.63008 58.6314C4.97189 58.6314 3.83484 59.7921 3.83484 61.3437C3.83484 62.8716 4.93635 64.0797 6.70115 64.0797C7.58947 64.0797 8.41856 63.7718 9.12922 63.2862Z" fill="#280200"/>
<path d="M15.7817 63.2032H11.8257C12.0271 64.0087 12.6904 64.3758 13.5195 64.3758C14.1709 64.3758 14.8815 64.1508 15.4974 63.7362V65.2405C14.9289 65.5958 14.0524 65.7734 13.2826 65.7734C11.3638 65.7734 9.97802 64.5772 9.97802 62.7532C9.97802 60.8936 11.423 59.6855 13.0338 59.6855C14.467 59.6855 15.8172 60.633 15.8172 62.5873C15.8172 62.7887 15.8054 63.0493 15.7817 63.2032ZM11.8139 62.0662H14.159C14.0524 61.4385 13.5905 61.0594 13.0102 61.0594C12.4535 61.0594 11.9679 61.4029 11.8139 62.0662Z" fill="#280200"/>
<path d="M16.9845 65.6432V59.8158H18.7492V60.5975L18.7729 60.6094C19.1756 60.0408 19.7442 59.7447 20.4667 59.7447C20.5851 59.7447 20.7154 59.7566 20.8457 59.7921V61.4858C20.7035 61.4503 20.5259 61.4266 20.3601 61.4266C19.7323 61.4266 19.2112 61.6161 18.7848 62.1136V65.6432H16.9845Z" fill="#280200"/>
<path d="M25.6092 64.0205V65.4537C25.3368 65.6313 24.8038 65.7734 24.2945 65.7734C23.7023 65.7734 23.1456 65.5839 22.7784 65.1931C22.4705 64.8614 22.2691 64.3758 22.2691 63.452V61.3082H21.3216V59.8158H22.2691V58.2997L24.0694 57.9918V59.8158H25.6092V61.3082H24.0694V63.2625C24.0694 63.831 24.1997 64.2574 24.7446 64.2574C25.0407 64.2574 25.3723 64.1389 25.6092 64.0205Z" fill="#280200"/>
<path d="M26.5467 57.9681C26.5467 57.3996 27.0205 56.9376 27.589 56.9376C28.1576 56.9376 28.6313 57.3996 28.6313 57.9681C28.6313 58.5366 28.1576 58.9985 27.589 58.9985C27.0205 58.9985 26.5467 58.5366 26.5467 57.9681ZM26.6889 65.6432V59.8158H28.4892V65.6432H26.6889Z" fill="#280200"/>
<path d="M30.3052 65.6432V61.3082H29.4761V59.8158H30.3052V58.9512C30.3052 58.1339 30.471 57.4351 30.9211 57.0087C31.3356 56.606 31.987 56.4639 32.5674 56.4639C32.899 56.4639 33.2425 56.5112 33.5623 56.6297V58.0865C33.3373 58.0273 32.982 57.9799 32.7806 57.9799C32.2239 57.9799 32.1055 58.3353 32.1055 58.8327V59.8158H33.4557V61.3082H32.1055V65.6432H30.3052ZM34.2967 57.9681C34.2967 57.3996 34.7704 56.9376 35.339 56.9376C35.9075 56.9376 36.3813 57.3996 36.3813 57.9681C36.3813 58.5366 35.9075 58.9985 35.339 58.9985C34.7704 58.9985 34.2967 58.5366 34.2967 57.9681ZM34.4388 65.6432V59.8158H36.2391V65.6432H34.4388Z" fill="#280200"/>
<path d="M43.1715 63.2032H39.2155C39.4169 64.0087 40.0802 64.3758 40.9093 64.3758C41.5607 64.3758 42.2714 64.1508 42.8873 63.7362V65.2405C42.3187 65.5958 41.4423 65.7734 40.6724 65.7734C38.7536 65.7734 37.3678 64.5772 37.3678 62.7532C37.3678 60.8936 38.8128 59.6855 40.4237 59.6855C41.8568 59.6855 43.2071 60.633 43.2071 62.5873C43.2071 62.7887 43.1952 63.0493 43.1715 63.2032ZM39.2037 62.0662H41.5489C41.4423 61.4385 40.9803 61.0594 40.4 61.0594C39.8433 61.0594 39.3577 61.4029 39.2037 62.0662Z" fill="#280200"/>
<path d="M48.2947 65.3352L48.271 65.3234C47.8802 65.5958 47.359 65.7734 46.7905 65.7734C45.3218 65.7734 44.0545 64.6364 44.0545 62.8479C44.0545 61.0121 45.3929 59.6855 47.134 59.6855C47.5722 59.6855 47.9276 59.7684 48.2355 59.8987L48.2592 59.8869V56.5942H50.0595V65.6432H48.2947V65.3352ZM48.2592 64.0087V61.4029C47.9986 61.2726 47.6788 61.1779 47.3235 61.1779C46.376 61.1779 45.8666 61.8885 45.8666 62.765C45.8666 63.6296 46.3641 64.3048 47.2524 64.3048C47.6433 64.3048 47.9986 64.1745 48.2592 64.0087Z" fill="#280200"/>
<path d="M3.07708 78.0798H3.59823C4.81819 78.0798 5.59991 77.8666 6.1329 77.4047C6.6422 76.9665 6.962 76.2795 6.962 75.4267C6.962 74.5265 6.60667 73.7685 5.96708 73.3184C5.36302 72.892 4.54577 72.7973 3.58639 72.7973H3.07708V78.0798ZM1.19385 79.7262V71.1509H3.59823C5.12614 71.1509 6.31056 71.3997 7.19888 72.0156C8.25302 72.7499 8.84523 73.958 8.84523 75.4267C8.84523 76.777 8.33593 77.9258 7.42392 78.672C6.54745 79.3827 5.31565 79.7262 3.51532 79.7262H1.19385Z" fill="#280200"/>
<path d="M15.397 77.2863H11.4411C11.6424 78.0917 12.3057 78.4588 13.1348 78.4588C13.7862 78.4588 14.4969 78.2338 15.1128 77.8192V79.3235C14.5443 79.6788 13.6678 79.8565 12.8979 79.8565C10.9791 79.8565 9.59336 78.6602 9.59336 76.8362C9.59336 74.9766 11.0384 73.7685 12.6492 73.7685C14.0823 73.7685 15.4326 74.7161 15.4326 76.6704C15.4326 76.8717 15.4207 77.1323 15.397 77.2863ZM11.4292 76.1492H13.7744C13.6678 75.5215 13.2059 75.1424 12.6255 75.1424C12.0688 75.1424 11.5832 75.4859 11.4292 76.1492Z" fill="#280200"/>
<path d="M16.434 79.3708V77.7956C17.2394 78.2693 18.1751 78.4707 18.7318 78.4707C19.2292 78.4707 19.5253 78.3404 19.5253 78.0206C19.5253 77.5705 18.8739 77.6179 17.9974 77.3929C16.8959 77.1204 16.2445 76.6585 16.2445 75.6991C16.2563 74.4673 17.346 73.7685 18.791 73.7685C19.4898 73.7685 20.3544 73.9106 21.0177 74.2304V75.782C20.2478 75.3438 19.3477 75.1543 18.8265 75.1543C18.3527 75.1543 18.0685 75.2964 18.0685 75.5688C18.0685 75.9952 18.6962 75.9597 19.5609 76.1729C20.6742 76.4453 21.3493 76.8717 21.3493 77.8785C21.3375 79.1576 20.2241 79.8565 18.7318 79.8565C18.0329 79.8565 17.1328 79.7143 16.434 79.3708Z" fill="#280200"/>
<path d="M22.3104 72.0511C22.3104 71.4826 22.7842 71.0206 23.3527 71.0206C23.9212 71.0206 24.395 71.4826 24.395 72.0511C24.395 72.6196 23.9212 73.0815 23.3527 73.0815C22.7842 73.0815 22.3104 72.6196 22.3104 72.0511ZM22.4525 79.7262V73.8988H24.2528V79.7262H22.4525Z" fill="#280200"/>
<path d="M26.2228 82.0358V80.3302C26.815 80.6974 27.4901 80.9224 28.106 80.9224C28.9825 80.9224 29.5273 80.4724 29.5273 79.6077V79.2879L29.5036 79.2761C29.1602 79.5248 28.6272 79.6669 28.1415 79.6669C26.7321 79.6669 25.4292 78.5773 25.4292 76.8125C25.4292 75.1069 26.6492 73.7685 28.4613 73.7685C29.018 73.7685 29.5036 73.8988 29.9182 74.1001L31.3277 73.8514V79.6077C31.3277 81.4436 30.0722 82.4622 28.2126 82.4622C27.4664 82.4622 26.7321 82.2845 26.2228 82.0358ZM29.5273 77.9495V75.5096C29.3023 75.3912 28.9588 75.2964 28.639 75.2964C27.7033 75.2964 27.2532 75.9834 27.2532 76.7414C27.2532 77.5942 27.7744 78.1983 28.6153 78.1983C28.9351 78.1983 29.2786 78.1035 29.5273 77.9495Z" fill="#280200"/>
<path d="M32.8394 79.7262V73.8988H34.616V74.4318L34.6397 74.4436C35.0898 74.0765 35.7057 73.7685 36.44 73.7685C37.0559 73.7685 37.6007 73.9817 37.9679 74.3607C38.3232 74.7397 38.4772 75.249 38.4772 76.09V79.7262H36.6769V76.3861C36.6769 75.9479 36.6177 75.7347 36.4755 75.5688C36.3216 75.3912 36.1084 75.3201 35.8596 75.3201C35.3977 75.3201 34.9595 75.557 34.6397 75.8057V79.7262H32.8394Z" fill="#280200"/>
<path d="M45.3778 77.2863H41.4218C41.6232 78.0917 42.2864 78.4588 43.1155 78.4588C43.767 78.4588 44.4776 78.2338 45.0935 77.8192V79.3235C44.525 79.6788 43.6485 79.8565 42.8787 79.8565C40.9599 79.8565 39.5741 78.6602 39.5741 76.8362C39.5741 74.9766 41.0191 73.7685 42.6299 73.7685C44.0631 73.7685 45.4133 74.7161 45.4133 76.6704C45.4133 76.8717 45.4015 77.1323 45.3778 77.2863ZM41.41 76.1492H43.7551C43.6485 75.5215 43.1866 75.1424 42.6062 75.1424C42.0496 75.1424 41.5639 75.4859 41.41 76.1492Z" fill="#280200"/>
<path d="M46.5805 79.7262V73.8988H48.3453V74.6805L48.369 74.6924C48.7717 74.1238 49.3403 73.8277 50.0628 73.8277C50.1812 73.8277 50.3115 73.8396 50.4418 73.8751V75.5688C50.2996 75.5333 50.122 75.5096 49.9562 75.5096C49.3284 75.5096 48.8073 75.6991 48.3809 76.1966V79.7262H46.5805Z" fill="#280200"/>
<circle cx="25.2325" cy="24.0635" r="22.2982" stroke="#280200" stroke-width="3.52077"/>
<path d="M16.4302 36.3866V11.7412H23.2435C26.5303 11.7412 29.509 12.2518 32.0083 13.7496C35.569 15.8942 37.5548 19.6727 37.5548 23.9618C37.5548 28.0467 35.7745 31.689 32.6246 33.9017C29.9883 35.7399 26.7015 36.3866 22.4218 36.3866H16.4302ZM19.6828 33.4591H22.9353C25.914 33.4591 28.3107 33.0847 30.2964 31.8252C32.6588 30.3274 34.3022 27.5361 34.3022 24.0639C34.3022 20.4897 32.5561 17.8345 30.3307 16.3707C28.1737 14.941 25.5374 14.6687 22.8669 14.6687H19.6828V33.4591Z" fill="#280200"/>
</svg>
